# xmcd
#
# Track frame offsets:
#	150
#	18404
#	42910
#	68164
#	83220
#	94724
#	103385
#	130290
#	158484
#	170221
#	191923
#	204632
#	218344
#	233386
#
# Disc length: 3395
#
# Revision: 1
# Processed by: cddbd v1.5.1PL0 Copyright (c) Steve Scherf et al.
# Submitted via: dBpowerAMP V4.0
# Normalized: r0:TDELIM( - ),TSWAP
#
DISCID=bb0d410e
DTITLE=Various Artist - Art Laboe's Dedicated to You, Vol. 3
DYEAR=1994
DGENRE=Blues
TTITLE0=Zapp - More Bounce to the Ounce
TTITLE1=One Way - Cutie Pie
TTITLE2=Tom Tom Club - Genius of Love
TTITLE3=Donnie Elbert - Where Did Our Love Go
TTITLE4=The Elgins - Darling Baby
TTITLE5=The Intruders - Sad Girl
TTITLE6=Deniece Williams - Silly
TTITLE7=Heatwave - Always and Forever
TTITLE8=Etta James - I'd Rather Go Blind
TTITLE9=Smokey Robinson - Agony and the Ecstasy
TTITLE10=The Impressions - I'm So Proud
TTITLE11=Little Anthony and the Imperials - I'm on the Outside (Looking In)
TTITLE12=The Persuaders - Thin Line Between Love and Hate
TTITLE13=George Clinton - Atomic Dog
EXTD=
EXTT0=
EXTT1=
EXTT2=
EXTT3=
EXTT4=
EXTT5=
EXTT6=
EXTT7=
EXTT8=
EXTT9=
EXTT10=
EXTT11=
EXTT12=
EXTT13=
PLAYORDER=
